<?xml version="1.0" standalone="no"?>
<!DOCTYPE svg PUBLIC "-//W3C//DTD SVG 20010904//EN"
 "http://www.w3.org/TR/2001/REC-SVG-20010904/DTD/svg10.dtd">
<svg version="1.0" xmlns="http://www.w3.org/2000/svg"
 width="512.000000pt" height="512.000000pt" viewBox="0 0 512.000000 512.000000"
 preserveAspectRatio="xMidYMid meet">
<metadata>
Created by potrace 1.14, written by Peter Selinger 2001-2017
</metadata>
<g transform="translate(0.000000,512.000000) scale(0.100000,-0.100000)"
fill="#000000" stroke="none">
<path d="M0 4765 l0 -355 33 0 c24 0 35 -6 43 -25 9 -18 9 -25 0 -28 -6 -2 -7
-8 -3 -13 5 -5 15 -1 23 10 14 20 18 16 15 -16 -1 -9 6 -18 16 -21 14 -4 13
-5 -4 -6 -27 -1 -31 -27 -5 -34 11 -3 7 -5 -10 -6 -20 -1 -26 -6 -25 -21 2
-24 15 -26 23 -5 4 8 10 15 14 15 8 0 23 -38 21 -53 -1 -4 5 -23 13 -42 16
-37 33 -45 42 -20 8 19 42 29 57 16 16 -12 42 2 32 18 -4 7 -14 11 -23 10 -38
-3 -45 0 -32 16 7 8 19 15 27 15 26 0 63 47 63 80 0 19 4 29 10 25 6 -4 16 -2
23 3 9 8 82 9 82 2 0 -3 49 -10 90 -13 44 -4 79 -19 112 -51 19 -18 20 -23 7
-36 -8 -8 -24 -28 -36 -43 -11 -16 -31 -32 -44 -37 -27 -11 -93 -97 -94 -123
0 -10 39 -57 86 -105 47 -48 92 -99 100 -114 8 -16 18 -28 23 -28 4 0 13 -11
19 -25 6 -14 18 -25 25 -25 20 0 65 -51 72 -82 4 -14 15 -34 26 -44 10 -9 19
-21 19 -25 0 -5 13 -21 28 -36 16 -16 46 -47 67 -71 43 -48 38 -62 -21 -62
-45 0 -118 -40 -102 -56 3 -2 22 2 44 10 61 22 142 38 153 32 6 -4 8 -13 5
-20 -3 -7 6 -21 20 -30 15 -9 26 -25 26 -35 0 -24 61 -33 98 -14 43 23 54 11
51 -59 l-3 -63 42 -20 c25 -12 42 -26 42 -37 0 -9 7 -23 15 -32 19 -19 19 -22
-2 -29 -120 -37 -170 -47 -192 -41 -75 21 -90 15 -189 -67 -12 -10 -93 -35
-177 -55 -11 -3 -38 3 -60 12 -22 10 -52 19 -66 20 -33 2 -72 39 -72 69 1 19
-6 24 -38 29 -46 7 -107 41 -134 75 -11 14 -28 45 -38 70 -10 25 -33 62 -52
82 -18 21 -39 47 -45 59 -17 32 -40 112 -40 141 0 17 -16 42 -50 77 -28 28
-50 56 -50 62 0 5 -7 10 -17 10 -9 0 -14 3 -10 6 10 10 -14 64 -29 64 -8 0
-14 5 -14 10 0 6 5 10 10 10 6 0 10 10 10 23 -1 21 -2 21 -25 -7 -17 -21 -23
-41 -22 -68 1 -36 3 -38 43 -44 43 -6 54 -27 25 -50 -10 -8 -11 -13 -3 -18 19
-11 14 -26 -9 -26 -11 0 -29 -4 -39 -10 -18 -9 -19 -32 -20 -487 l-1 -478 34
33 c18 17 46 58 62 90 24 47 38 63 70 76 64 29 244 35 282 11 31 -21 80 -19
92 3 5 10 22 19 38 20 15 1 47 10 71 19 35 13 48 14 63 5 10 -7 19 -8 19 -3 0
6 -4 13 -10 16 -5 3 -10 15 -10 26 0 10 -5 19 -11 19 -5 0 -8 4 -4 10 3 5 12
7 19 4 8 -3 17 -1 21 5 9 16 25 13 25 -4 0 -22 17 -18 23 5 7 29 37 26 37 -4
0 -17 -7 -27 -22 -32 -22 -6 -22 -7 4 -20 26 -14 88 -4 115 18 7 6 27 8 45 4
37 -7 103 -16 133 -19 11 -1 26 -8 34 -15 8 -8 24 -11 38 -7 13 3 39 -2 58
-11 22 -10 47 -14 67 -11 38 7 103 -17 142 -50 14 -13 36 -22 47 -20 28 3 36
-19 10 -28 -32 -10 -71 -45 -71 -64 0 -10 -7 -32 -16 -50 -11 -22 -14 -44 -9
-68 5 -28 3 -38 -13 -49 -11 -7 -25 -28 -33 -46 -7 -18 -19 -37 -26 -41 -18
-11 -17 -21 13 -88 20 -43 24 -62 16 -72 -6 -7 -12 -35 -13 -62 -1 -37 -10
-65 -36 -108 -19 -32 -32 -64 -29 -72 3 -8 -6 -26 -19 -39 -26 -26 -33 -60
-15 -71 6 -3 15 6 21 22 l10 28 19 -25 c28 -37 25 -57 -10 -65 -28 -6 -52 -25
-31 -25 5 0 22 -5 37 -10 26 -10 26 -11 9 -30 -14 -15 -15 -23 -6 -34 9 -11 8
-17 -4 -30 -15 -15 -15 -16 4 -16 34 0 24 -19 -19 -37 -25 -11 -40 -24 -40
-35 0 -24 -65 -26 -74 -2 -8 20 -26 8 -26 -17 0 -24 13 -36 130 -121 47 -35
148 -115 225 -179 77 -63 159 -128 183 -143 l43 -27 0 -67 c1 -256 -8 -504
-20 -559 -3 -11 -29 1 -39 17 -7 11 -18 17 -27 14 -10 -4 -15 0 -15 10 0 9
-11 28 -24 41 -14 13 -27 33 -31 44 -3 11 -14 23 -24 26 -11 3 -21 15 -24 26
-3 11 -15 23 -26 26 -12 3 -21 12 -21 19 0 8 -4 14 -10 14 -5 0 -16 12 -24 28
-8 15 -15 21 -16 13 0 -8 -14 2 -33 21 -18 20 -43 39 -55 42 -13 4 -19 13 -15
22 3 8 -1 14 -10 14 -9 0 -18 8 -20 18 -4 13 -5 11 -6 -5 -1 -26 -11 -29 -29
-11 -9 9 -12 8 -12 -5 0 -9 -4 -17 -10 -17 -5 0 -10 9 -10 20 0 11 -6 20 -13
20 -7 0 -20 9 -30 20 -22 26 -43 26 -50 0 -3 -13 -14 -20 -29 -20 -54 -1 -79
-36 -38 -54 8 -3 3 -4 -12 -1 -21 4 -30 0 -40 -17 -7 -13 -13 -29 -13 -37 0
-8 -6 -16 -13 -19 -6 -2 -12 1 -12 6 0 6 -9 8 -20 5 -19 -5 -19 -2 -13 43 3
27 9 51 12 54 4 3 6 36 6 73 0 45 5 71 14 76 10 7 9 9 -3 14 -21 8 -21 33 0
45 13 8 14 11 2 23 -8 8 -17 22 -21 31 -3 9 -17 24 -30 32 -19 13 -29 14 -55
4 -31 -12 -32 -14 -33 -73 -1 -33 -3 -71 -5 -85 -13 -108 -25 -194 -34 -245
-6 -33 -11 -75 -10 -94 0 -25 -3 -32 -14 -28 -8 3 -20 0 -26 -8 -8 -10 -8 -14
2 -18 7 -2 10 -8 6 -12 -4 -4 -14 -2 -23 5 -10 8 -15 9 -15 1 0 -6 -5 -11 -11
-11 -6 0 -9 9 -6 20 6 22 -18 29 -25 8 -7 -19 2 -38 18 -38 8 0 14 -9 14 -20
0 -12 -5 -17 -14 -14 -8 3 -17 1 -20 -4 -3 -5 -21 -8 -41 -5 -19 2 -35 -1 -35
-6 0 -18 -51 -8 -62 12 l-11 21 -8 -22 c-11 -30 -29 -28 -29 5 0 14 -3 23 -7
19 -12 -11 -10 -66 2 -67 6 -1 17 -1 25 0 8 0 5 -4 -7 -11 -13 -6 -23 -14 -23
-18 0 -5 -10 -10 -23 -14 -24 -6 -26 -14 -29 -98 -1 -29 -6 -38 -19 -38 -9 0
-24 -3 -33 -6 -9 -3 -16 -1 -16 5 0 6 11 11 25 11 17 0 25 5 25 18 0 20 -20
54 -20 35 0 -7 -7 -13 -15 -13 -8 0 -12 6 -10 12 5 15 -11 45 -19 37 -3 -3 -1
-20 4 -39 15 -52 4 -47 -24 11 -30 62 -32 73 -10 65 23 -9 66 21 60 42 -23 90
-33 115 -43 119 -8 3 -11 14 -7 28 4 17 1 25 -14 29 -18 6 -22 18 -48 136 -8
38 -18 214 -29 493 -5 130 -21 195 -56 223 -8 7 -47 15 -86 19 l-73 7 0 -766
0 -766 2560 0 2560 0 0 1121 0 1120 -44 20 c-24 10 -51 17 -59 13 -8 -3 -45 9
-83 26 -37 17 -99 35 -138 42 -88 13 -112 28 -132 78 -14 34 -26 44 -87 73
-40 19 -85 37 -101 41 -27 7 -28 9 -22 51 15 96 -36 134 -192 142 -113 6 -113
6 -113 83 -1 86 5 105 31 108 29 2 113 19 150 29 14 4 59 8 100 10 41 1 120 5
175 9 55 3 114 6 130 5 30 -1 42 12 61 62 3 9 16 17 27 17 19 0 19 -1 4 -18
-22 -24 -13 -32 23 -22 20 6 30 5 33 -3 2 -7 2 -2 0 11 -2 12 1 22 6 22 18 0
29 -27 26 -67 -2 -36 1 -43 16 -43 11 0 19 -7 19 -15 0 -18 9 -19 31 -2 9 7
40 12 70 12 48 0 54 -2 60 -25 6 -20 7 -17 8 18 1 40 0 42 -23 36 -13 -3 -27
-1 -30 5 -5 7 4 11 24 11 52 0 25 16 -52 30 -42 8 -63 16 -50 18 13 2 26 11
29 20 4 9 14 22 22 29 12 9 13 12 2 13 -7 0 -11 6 -8 14 3 8 -1 20 -9 26 -8 7
-14 21 -14 30 0 35 -10 47 -35 42 -13 -2 -41 2 -62 9 -21 7 -44 14 -52 15 -30
5 -34 22 -13 56 12 19 29 41 39 50 20 17 63 30 63 19 0 -14 65 -11 117 5 l53
17 0 392 c0 349 -2 394 -16 399 -22 9 -24 8 -24 -9 0 -19 -19 -19 -26 0 -10
24 -25 6 -18 -21 5 -18 2 -24 -10 -24 -9 0 -16 8 -16 20 0 11 -4 20 -10 20 -5
0 -10 -9 -10 -20 0 -11 -4 -20 -10 -20 -5 0 -10 4 -10 10 0 5 -6 7 -14 4 -16
-6 -38 27 -34 48 2 8 -6 12 -19 11 -14 -2 -23 3 -23 12 0 20 21 30 31 14 7
-11 10 -9 15 8 7 27 41 37 47 14 4 -15 5 -15 6 1 1 11 14 18 44 23 23 4 54 12
70 18 l27 12 0 422 0 423 -2560 0 -2560 0 0 -355z m2970 -120 c-13 -16 -60
-21 -60 -6 0 12 18 19 49 20 20 1 21 -1 11 -14z m-355 -105 c-18 -20 -45 -27
-45 -12 0 15 24 32 44 32 18 0 19 -1 1 -20z m-999 -16 c-5 -12 -2 -15 11 -10
14 6 15 4 6 -5 -6 -6 -16 -8 -22 -5 -14 9 -14 36 0 36 6 0 8 -7 5 -16z m-366
-24 c0 -5 -12 -10 -27 -10 -22 0 -25 2 -13 10 20 13 40 13 40 0z m493 -9 c3
-14 1 -18 -9 -14 -8 3 -14 11 -14 19 0 21 17 17 23 -5z m-383 -1 c0 -5 -4 -10
-10 -10 -5 0 -10 5 -10 10 0 6 5 10 10 10 6 0 10 -4 10 -10z m1040 0 c0 -5 -8
-10 -17 -10 -15 0 -16 2 -3 10 19 12 20 12 20 0z m93 -11 c-11 -12 -26 -18
-32 -14 -17 10 6 35 32 35 l21 0 -21 -21z m-1046 -5 c-3 -3 -12 -4 -19 -1 -8
3 -5 6 6 6 11 1 17 -2 13 -5z m93 -29 c0 -9 -9 -15 -25 -15 -16 0 -25 6 -25
15 0 9 9 15 25 15 16 0 25 -6 25 -15z m-594 -30 c0 -33 -1 -35 -32 -35 -37 0
-104 35 -104 55 0 8 21 13 68 14 l67 2 1 -36z m704 5 c0 -5 -7 -10 -15 -10 -8
0 -15 5 -15 10 0 6 7 10 15 10 8 0 15 -4 15 -10z m-412 -214 c39 -19 107 -28
136 -16 42 16 29 -5 -20 -32 l-45 -25 44 -17 c25 -9 50 -27 57 -41 19 -36 25
-31 25 19 1 50 22 81 61 89 19 3 34 -3 58 -28 18 -17 41 -37 51 -42 16 -9 17
-13 6 -27 -15 -18 -86 -22 -94 -6 -3 6 -4 5 -3 -2 3 -16 -25 -48 -41 -48 -23
0 -14 -17 25 -46 20 -15 42 -33 47 -40 6 -6 17 -14 25 -17 30 -11 -28 -7 -80
5 -65 15 -151 88 -131 112 10 12 9 20 -5 41 -15 23 -22 26 -53 20 -33 -6 -38
-3 -83 46 -26 29 -45 56 -42 61 8 12 31 10 62 -6z m1361 -2 c9 -9 -23 -34 -45
-34 -29 0 -39 16 -23 36 11 14 54 13 68 -2z m2461 -133 c0 -20 -13 -35 -23
-25 -7 8 4 44 14 44 5 0 9 -9 9 -19z m-3076 -116 c36 -15 45 -28 26 -40 -13
-8 -82 34 -74 46 7 11 5 12 48 -6z m-729 -25 c0 -22 -29 -18 -33 3 -3 14 1 18
15 15 10 -2 18 -10 18 -18z m0 -76 c-9 -9 -19 -13 -23 -10 -3 4 0 11 8 16 24
15 33 11 15 -6z m642 -150 c5 -15 -20 -24 -37 -14 -7 4 -9 13 -5 19 8 14 37
11 42 -5z m-67 -14 c0 -5 -10 -12 -22 -16 -13 -3 -30 -13 -40 -21 -18 -16 -84
-14 -81 2 2 15 47 35 92 41 13 1 26 5 28 8 7 7 23 -3 23 -14z m400 -154 c0
-44 -17 -55 -30 -20 -13 32 -7 54 15 54 10 0 15 -10 15 -34z m-314 -21 c-5
-18 -15 -27 -37 -32 -23 -4 -34 -14 -45 -42 -9 -24 -27 -43 -52 -56 -23 -12
-45 -35 -57 -60 -11 -22 -24 -43 -30 -47 -16 -12 -30 -2 -27 18 2 10 5 30 6
44 2 14 4 30 5 36 5 43 211 195 235 173 5 -4 6 -19 2 -34z m74 26 c0 -11 -4
-23 -10 -26 -5 -3 -10 -2 -10 4 0 5 -3 16 -6 25 -4 11 -1 16 10 16 9 0 16 -8
16 -19z m396 -27 c4 -14 1 -37 -5 -51 l-12 -26 -19 36 c-27 50 -26 67 5 67 18
0 26 -7 31 -26z m1491 13 c62 -18 69 -29 41 -63 -76 -93 -121 -123 -124 -83
-3 34 -18 59 -35 59 -20 0 -27 34 -9 45 6 4 8 11 4 16 -23 37 42 50 123 26z
m-1344 -56 c5 -22 -1 -33 -14 -25 -12 7 -12 44 0 44 5 0 11 -9 14 -19z m-577
-253 c35 -40 54 -105 40 -137 -5 -12 -14 -20 -20 -18 -10 3 -95 162 -96 180
-1 20 50 4 76 -25z m2797 -92 c3 -7 1 -18 -4 -23 -6 -6 -4 -14 6 -23 8 -7 15
-18 15 -24 0 -8 -3 -7 -8 1 -4 7 -23 15 -41 18 -19 3 -38 8 -43 11 -17 11 -7
33 20 42 38 14 49 14 55 -2z m-2273 -21 c0 -8 -7 -15 -15 -15 -8 0 -15 7 -15
15 0 8 7 15 15 15 8 0 15 -7 15 -15z m-617 -41 c3 -17 -1 -28 -11 -31 -19 -8
-74 22 -91 49 -12 20 -11 21 16 15 16 -3 35 -2 43 3 19 12 36 -4 43 -36z
m2318 23 c-1 -12 -15 -9 -19 4 -3 6 1 10 8 8 6 -3 11 -8 11 -12z m-1977 -12
c-4 -8 -11 -15 -16 -15 -6 0 -16 -7 -23 -17 -13 -18 -40 -9 -28 10 4 7 8 15 9
20 1 4 2 9 3 12 0 3 14 5 31 5 22 0 28 -4 24 -15z m126 -14 c0 -22 -16 -36
-24 -22 -8 12 3 41 15 41 5 0 9 -9 9 -19z m-614 -13 c28 -27 31 -40 7 -31 -22
9 -53 35 -53 45 0 15 22 8 46 -14z m-516 -54 c47 2 97 7 111 11 17 4 38 1 56
-8 24 -13 29 -22 31 -57 2 -32 10 -48 35 -70 18 -16 26 -30 20 -30 -7 0 -13 6
-13 13 -1 7 -6 5 -14 -5 -15 -21 -37 -23 -54 -6 -8 8 -15 8 -25 0 -16 -14 -71
3 -101 31 -11 9 -26 17 -33 17 -7 0 -26 15 -44 34 -17 19 -41 37 -55 40 -13 4
-24 12 -24 20 0 18 12 28 20 16 3 -6 41 -8 90 -6z m605 -4 c-3 -5 -12 -7 -20
-3 -21 7 -19 13 6 13 11 0 18 -4 14 -10z m2190 -670 c3 -5 -1 -10 -9 -10 -9 0
-16 5 -16 10 0 6 4 10 9 10 6 0 13 -4 16 -10z m507 -2 c28 1 41 -5 53 -21 13
-18 13 -23 1 -35 -10 -10 -19 -11 -33 -4 -12 7 -25 7 -34 1 -20 -13 -23 -12
-53 16 -33 31 -29 61 6 49 13 -4 40 -7 60 -6z m-3099 -502 c3 -7 1 -18 -5 -24
-15 -15 -38 -3 -38 19 0 22 35 26 43 5z m3424 -105 c7 -9 10 -23 8 -31 -2 -8
-7 -35 -10 -59 l-7 -45 24 27 c33 35 39 34 31 -5 -5 -23 -3 -29 6 -23 8 4 6
-5 -4 -25 -12 -23 -22 -31 -36 -27 -10 3 -19 1 -19 -4 0 -5 -6 -9 -14 -9 -13
0 -46 56 -46 79 0 5 -7 14 -16 19 -8 5 -21 20 -28 33 -10 20 -9 29 8 56 29 44
75 50 103 14z m-3437 -81 c0 -5 -7 -10 -15 -10 -8 0 -15 5 -15 10 0 6 7 10 15
10 8 0 15 -4 15 -10z m90 -150 c0 -5 -7 -10 -15 -10 -8 0 -15 5 -15 10 0 6 7
10 15 10 8 0 15 -4 15 -10z m3520 -30 c0 -5 -7 -10 -15 -10 -8 0 -15 5 -15 10
0 6 7 10 15 10 8 0 15 -4 15 -10z m42 -73 c11 -17 10 -55 -1 -61 -5 -3 -7 -15
-4 -26 4 -15 0 -20 -13 -20 -16 0 -17 2 -4 10 12 8 11 10 -7 10 -16 0 -23 -6
-23 -18 0 -10 -12 -29 -26 -41 -26 -22 -27 -23 -38 -5 -23 40 -25 64 -5 74 11
7 19 21 19 38 0 22 2 24 11 12 8 -12 9 -9 5 11 -3 14 -2 29 2 33 10 10 75 -3
84 -17z m-602 -36 c14 -16 51 -62 83 -102 31 -41 62 -80 68 -88 9 -10 8 -15
-2 -22 -11 -7 -9 -10 8 -15 21 -6 26 -19 36 -91 4 -28 -18 -11 -28 22 -14 50
-44 78 -106 98 -30 9 -72 27 -94 40 l-40 23 -3 73 c-2 41 -1 80 2 88 8 21 46
7 76 -26z m667 -33 c-3 -8 -6 -5 -6 6 -1 11 2 17 5 13 3 -3 4 -12 1 -19z
m-4000 -514 c-3 -3 -12 -4 -19 -1 -8 3 -5 6 6 6 11 1 17 -2 13 -5z m-149 -111
c-4 -22 -22 -20 -26 1 -2 10 3 16 13 16 10 0 15 -7 13 -17z m3978 -18 c10 -8
14 -15 7 -15 -19 0 -43 11 -43 21 0 13 14 11 36 -6z m-4486 -249 c0 -3 -4 -8
-10 -11 -5 -3 -10 -1 -10 4 0 6 5 11 10 11 6 0 10 -2 10 -4z"/>
<path d="M870 4430 c0 -6 7 -10 15 -10 8 0 15 2 15 4 0 2 -7 6 -15 10 -8 3
-15 1 -15 -4z"/>
<path d="M4790 1556 c0 -9 5 -16 10 -16 6 0 10 4 10 9 0 6 -4 13 -10 16 -5 3
-10 -1 -10 -9z"/>
<path d="M348 4273 c6 -2 18 -2 25 0 6 3 1 5 -13 5 -14 0 -19 -2 -12 -5z"/>
<path d="M525 4240 c3 -5 8 -10 11 -10 2 0 4 5 4 10 0 6 -5 10 -11 10 -5 0 -7
-4 -4 -10z"/>
<path d="M295 4140 c-3 -5 -21 -11 -38 -11 -18 -1 -24 -3 -14 -6 18 -5 24 -23
7 -23 -5 0 -10 -11 -10 -25 0 -14 4 -25 10 -25 5 0 7 6 4 14 -3 9 6 17 25 24
17 6 31 15 31 21 0 5 3 16 6 25 7 17 -11 22 -21 6z"/>
<path d="M113 4105 c-8 -23 3 -29 26 -13 21 15 18 28 -6 28 -7 0 -16 -7 -20
-15z"/>
<path d="M100 4055 c-10 -12 -10 -22 -2 -39 8 -19 7 -27 -11 -44 l-21 -21 28
-11 c35 -13 63 -12 106 5 32 13 33 14 13 20 -13 4 -21 11 -18 15 3 5 1 11 -5
15 -5 3 -10 -1 -10 -10 0 -12 -6 -15 -22 -9 -31 9 -30 6 -14 46 9 20 12 38 9
42 -11 11 -40 6 -53 -9z"/>
<path d="M200 4030 c0 -5 4 -10 9 -10 6 0 13 5 16 10 3 6 -1 10 -9 10 -9 0
-16 -4 -16 -10z"/>
<path d="M233 4011 c-11 -17 -9 -21 9 -26 11 -4 23 -3 27 3 3 5 16 12 29 16
33 11 27 21 -16 24 -28 1 -40 -3 -49 -17z"/>
<path d="M144 3806 c-4 -10 -18 -16 -36 -16 -16 0 -27 -4 -24 -8 8 -13 67 -1
73 15 3 7 3 17 -1 20 -3 3 -8 -2 -12 -11z"/>
<path d="M280 3500 c0 -5 5 -10 10 -10 6 0 10 5 10 10 0 6 -4 10 -10 10 -5 0
-10 -4 -10 -10z"/>
<path d="M4810 2979 c0 -5 5 -7 10 -4 6 3 10 8 10 11 0 2 -4 4 -10 4 -5 0 -10
-5 -10 -11z"/>
<path d="M4900 2770 c0 -5 5 -10 10 -10 6 0 10 5 10 10 0 6 -4 10 -10 10 -5 0
-10 -4 -10 -10z"/>
<path d="M4942 2760 c-16 -26 -15 -30 7 -30 11 0 21 -5 23 -11 3 -8 15 -6 41
4 26 12 37 22 37 38 0 15 -4 19 -16 15 -39 -15 -67 -18 -73 -8 -4 7 -11 4 -19
-8z"/>
<path d="M655 2750 c-3 -5 -1 -10 4 -10 6 0 11 5 11 10 0 6 -2 10 -4 10 -3 0
-8 -4 -11 -10z"/>
<path d="M0 2454 c0 -25 5 -41 13 -42 6 0 22 -4 35 -7 34 -11 28 15 -13 55
l-35 34 0 -40z"/>
<path d="M1197 1719 c-10 -6 -21 -8 -24 -5 -7 7 -33 -13 -33 -24 0 -12 84 1
92 14 18 27 -1 35 -35 15z"/>
<path d="M1230 1670 c0 -5 5 -10 11 -10 5 0 7 5 4 10 -3 6 -8 10 -11 10 -2 0
-4 -4 -4 -10z"/>
<path d="M1110 1009 c0 -5 5 -7 10 -4 6 3 10 8 10 11 0 2 -4 4 -10 4 -5 0 -10
-5 -10 -11z"/>
<path d="M980 985 c0 -14 5 -25 10 -25 6 0 10 5 10 10 0 6 11 8 25 4 14 -3 33
-3 42 0 27 11 -5 27 -39 21 -16 -3 -28 -1 -28 5 0 5 -4 10 -10 10 -5 0 -10
-11 -10 -25z"/>
<path d="M1095 970 c3 -5 11 -10 16 -10 6 0 7 5 4 10 -3 6 -11 10 -16 10 -6 0
-7 -4 -4 -10z"/>
<path d="M1053 950 c1 -6 -9 -16 -23 -23 -25 -13 -40 -47 -21 -47 6 0 11 6 11
13 0 7 14 18 30 24 21 8 28 16 24 27 -7 17 -26 22 -21 6z"/>
<path d="M1112 939 c2 -7 10 -15 17 -17 8 -3 12 1 9 9 -2 7 -10 15 -17 17 -8
3 -12 -1 -9 -9z"/>
<path d="M1074 909 c-3 -6 -2 -15 4 -21 13 -13 32 -2 32 18 0 16 -26 19 -36 3z"/>
<path d="M1196 894 c-3 -9 -2 -12 5 -9 5 4 17 1 25 -6 8 -6 18 -9 22 -5 7 7
-24 36 -39 36 -4 0 -10 -7 -13 -16z"/>
<path d="M961 838 c0 -21 3 -38 7 -38 15 0 42 36 42 56 -1 18 -1 18 -14 2 -7
-10 -16 -18 -19 -18 -3 0 -8 8 -10 18 -3 9 -5 0 -6 -20z"/>
<path d="M722 654 c10 -10 20 -16 22 -13 3 3 -5 11 -17 18 -21 13 -21 12 -5
-5z"/>
<path d="M691 634 c0 -11 3 -14 6 -6 3 7 2 16 -1 19 -3 4 -6 -2 -5 -13z"/>
<path d="M605 550 c3 -5 8 -10 11 -10 2 0 4 5 4 10 0 6 -5 10 -11 10 -5 0 -7
-4 -4 -10z"/>
<path d="M380 491 c0 -18 12 -41 21 -41 6 0 6 8 0 19 -6 10 -7 21 -4 25 3 3 1
6 -5 6 -7 0 -12 -4 -12 -9z"/>
</g>
</svg>
